<svg xmlns="http://www.w3.org/2000/svg" id="svg8" width="150mm" height="150mm" viewBox="0 0 150 150"><style id="style1" type="text/css">@keyframes flail-in{0%{opacity:0;transform:translateY(-18px) rotate(-10deg) scale(.62)}30%{opacity:.3;fill:#a8d5ba00;transform:translateY(8px) rotate(7deg) scale(1.07)}60%{opacity:.7;fill:#a8d5ba22;transform:translateY(-4px) rotate(-3deg) scale(.98)}to{opacity:1;transform:translateY(0) rotate(0deg) scale(1);fill:#a8d5ba}}.piece{opacity:1;transform-box:fill-box;transform-origin:center;animation:flail-in 900ms ease-out forwards;fill:none;stroke:#a8d5ba}</style><g id="g8" transform="translate(-36.42 -65.04)"><g id="g7" style="stroke-width:1.00001832;stroke-dasharray:none" transform="matrix(.76071 0 0 .76527 40.99 43.29)"><path id="path1" d="M40.186 160.195c-2.346-6.03-3.415-12.19-3.57-18.548-.256-10.623-.108-21.247-.08-31.87.006-2.555-.01-5.11-.11-7.658-.106-2.716 1.148-4.41 3.454-5.547 3.317-1.636 6.877-2.428 10.484-3.072 8.508-1.52 17.102-2.156 25.718-2.704 8.415-.535 16.83-.595 25.242-.398 10.434.244 20.858.84 31.17 2.591 4.29.729 8.577 1.53 12.605 3.33 2.846 1.27 4.332 3.21 4.142 6.476-.174 2.987.03 5.994-.034 8.99-.026 1.206.336 1.597 1.568 1.578 5.371-.083 10.303 1.353 14.51 4.765 4.92 3.988 7.704 9.18 8.344 15.509.648 6.397-.574 12.278-4.727 17.354-3.775 4.612-8.728 7.31-14.42 8.8-3.022.79-6.075 1.482-8.98 2.674-.947.388-1.579 1-2.053 1.924-6.346 12.345-16.341 19.935-29.907 22.822-2.338.498-4.731.522-7.104.532-9.567.041-19.136.146-28.7-.026-12.358-.221-22.244-5.66-30.142-14.963-3.165-3.728-5.553-7.932-7.41-12.56m36.64 21.162c10.183-.001 20.367-.051 30.55.014 7.113.045 13.474-2.2 19.088-6.373 11.092-8.242 16.114-19.702 16.472-33.222.285-10.704.03-21.422.003-32.134-.003-1.394-.198-1.53-1.563-1.163-4.688 1.258-9.47 2.032-14.277 2.608-9.277 1.112-18.602 1.612-27.938 1.806-10.49.219-20.97-.147-31.432-.96-7.988-.62-15.957-1.417-23.717-3.557-.939-.259-1.135.09-1.255.912-.228 1.55.053 3.08.052 4.62-.006 8.73.036 17.458.017 26.187-.007 3.315.225 6.604.893 9.845 1.954 9.483 6.179 17.685 13.83 23.855 5.543 4.47 11.709 7.475 19.277 7.562m-11.462-75.862c.26.046.52.112.782.133 7.909.619 15.834.997 23.762 1.062 9.165.076 18.323-.269 27.47-.946 6.685-.496 13.318-1.282 19.87-2.702 1.339-.29 2.722-.49 4.063-1.351-2.182-.996-4.32-1.507-6.477-1.922-6.927-1.334-13.938-1.95-20.965-2.48-7.391-.558-14.795-.726-22.193-.636-7.09.087-14.188.088-21.271.671-6.719.553-13.425 1.163-20.043 2.472-1.916.38-3.853.81-5.613 1.943 6.597 2.368 13.48 3.076 20.615 3.756m99.386 40.567c2.896-4.25 3.166-8.97 2.325-13.823-1.353-7.805-8.614-12.637-16.064-12.597-1.684.01-1.787.205-1.786 1.855 0 6.608.014 13.216-.001 19.824a43.4 43.4 0 0 1-.668 7.485c-.381 2.147-.827 4.282-1.28 6.61 3.423-1.256 6.836-1.96 10.02-3.372 2.952-1.31 5.535-3.081 7.454-5.982z" class="piece" style="animation-delay:0ms;stroke-width:1.00001832;stroke-dasharray:none"/><path id="path2" d="M95.733 65.385c.073 5.27.087 10.457.117 15.645.007 1.274.072 2.547.1 3.821.018.851-.378 1.238-1.261 1.311-3.188.265-3.335.163-3.352-3.005q-.044-8.18-.066-16.36c-.004-1.69.08-1.765 1.804-1.757.874.004 1.758-.041 2.658.345z" class="piece" style="animation-delay:80ms;stroke-width:1.00001832;stroke-dasharray:none"/><path id="path3" d="M82.143 81.937c-.045-2.196-.065-4.26-.144-6.322-.04-1.036.285-1.481 1.416-1.488 3.507-.023 3.39-.863 3.38 3.276-.007 2.46-.038 4.922.018 7.382.024 1.04-.39 1.417-1.386 1.406-3.895-.043-3.237.228-3.287-3.2-.005-.307.002-.615.003-1.054z" class="piece" style="animation-delay:160ms;stroke-width:1.00001832;stroke-dasharray:none"/><path id="path4" d="M101.194 86.04c-.616-.375-.49-.902-.493-1.366-.014-3.039.018-6.078-.029-9.116-.015-1.005.295-1.429 1.352-1.406 3.73.082 3.252-.48 3.285 3.181.022 2.466-.036 4.933.007 7.398.018 1.018-.355 1.473-1.378 1.42-.877-.046-1.756-.044-2.744-.11z" class="piece" style="animation-delay:240ms;stroke-width:1.00001832;stroke-dasharray:none"/><path id="path5" d="M91.95 160.293c5.964.46 10.632-1.913 14.551-6.048.483-.51.895-1.088 1.328-1.643.958-1.23 2.33-1.548 3.462-.792 1.144.764 1.47 2.33.61 3.608-1.949 2.9-4.496 5.2-7.524 6.912-9.992 5.652-22.087 3.243-29.481-6.6-1.018-1.355-.879-2.908.242-3.781 1.204-.938 2.693-.663 3.763.769 2.795 3.739 6.382 6.27 10.976 7.28.641.141 1.304.186 2.073.295z" class="piece" style="animation-delay:320ms;stroke-width:1.00001832;stroke-dasharray:none"/><path id="path6" d="M110.217 131.977c2.205-.339 3.986.195 5.113 2.088.976 1.639.972 3.356-.025 5.008-1.11 1.839-3.171 2.662-5.25 2.143-1.928-.481-3.355-2.338-3.458-4.5-.101-2.123 1.256-3.94 3.62-4.74z" class="piece" style="animation-delay:400ms;stroke-width:1.00001832;stroke-dasharray:none"/><path id="path7" d="M74.025 131.88c2.313.187 3.913 1.24 4.473 3.414.483 1.872.015 3.605-1.501 4.911a4.62 4.62 0 0 1-5.422.46c-1.745-1.067-2.592-3.203-2.094-5.285.484-2.028 2.042-3.26 4.544-3.5z" class="piece" style="animation-delay:480ms;stroke-width:1.00001832;stroke-dasharray:none"/></g></g></svg>